<svg width="430" height="100" viewBox="0 0 430 100" fill="none" xmlns="http://www.w3.org/2000/svg">
<path d="M204.373 74.9999C204.486 74.7247 204.321 74.6538 204.095 74.5739C203.114 74.2458 202.27 73.5888 201.7 72.7093C201.13 71.8299 200.866 70.7793 200.953 69.7277V46.1094C200.953 41.7425 201.048 37.3757 200.953 33.0266C200.866 30.1863 201.76 28.1538 204.425 27.0709H206.508C207.176 27.178 207.811 27.4432 208.361 27.8454C208.911 28.2476 209.361 28.7757 209.676 29.3875C214.306 36.5946 218.904 43.8195 223.469 51.062C223.999 51.8875 224.537 52.7041 225.205 53.7248V31.8195C225.191 31.1079 225.323 30.4011 225.596 29.7461C225.868 29.0912 226.274 28.503 226.785 28.0206C227.376 27.5434 228.08 27.2369 228.826 27.1331H230.908C231.96 27.318 232.915 27.8705 233.612 28.6962C234.309 29.5219 234.703 30.5695 234.728 31.6597C234.749 31.9551 234.749 32.2518 234.728 32.5473V69.3816C234.782 70.2621 234.631 71.1431 234.289 71.9528C233.946 72.7626 233.421 73.4782 232.757 74.0414C232.171 74.3993 231.552 74.6967 230.908 74.9289H228.782C227.046 74.4052 226.074 73.1537 225.154 71.6449C222.124 66.8076 219.026 62.0147 215.97 57.1864C214.103 54.2484 212.22 51.3106 210.31 48.3106V69.1065C210.372 69.9942 210.239 70.8848 209.922 71.7138C209.606 72.5428 209.112 73.2894 208.479 73.8993C207.877 74.3704 207.206 74.7419 206.491 74.9999H204.373Z" fill="#001772"/>
<path d="M146.067 27.2577C148.976 27.6721 151.677 29.0351 153.768 31.1443C155.859 33.2535 157.228 35.9962 157.673 38.9648C158.602 45.4353 156.536 50.6897 151.119 54.382C150.572 54.7548 150.677 55.021 150.894 55.4737C152.63 59.1394 154.366 62.7962 156.05 66.4796C156.518 67.3998 156.681 68.4511 156.514 69.4743C156.346 70.4977 155.857 71.4374 155.121 72.1512C154.692 72.5574 154.188 72.8732 153.64 73.0806C153.091 73.288 152.508 73.3829 151.924 73.3598C151.34 73.3367 150.765 73.1961 150.234 72.9461C149.703 72.6961 149.225 72.3415 148.828 71.9026C148.463 71.5216 148.169 71.0766 147.96 70.5891C145.763 65.9737 143.619 61.3406 141.406 56.7252C140.972 55.8376 140.477 54.9056 140.034 53.9826C138.411 50.6541 140.373 46.9707 143.993 46.9885C147.968 46.9885 149.774 42.4796 148.524 39.5684C148.185 38.6496 147.577 37.8601 146.783 37.3074C145.989 36.7547 145.048 36.4657 144.088 36.4797C142.595 36.4264 141.102 36.4797 139.609 36.4797C139.045 36.4797 138.854 36.6572 138.923 37.2074C138.923 37.4205 138.923 37.6335 138.923 37.8465V68.6187C138.96 69.7224 138.61 70.8032 137.937 71.6671C137.264 72.5309 136.312 73.1211 135.252 73.3316C134.162 73.5293 133.039 73.3041 132.103 72.7C131.167 72.0959 130.485 71.1564 130.191 70.0654C130.136 69.9425 130.072 69.8238 130 69.7103V30.6571C130.11 29.7391 130.519 28.8858 131.162 28.2351C131.804 27.5844 132.643 27.1744 133.542 27.0713H145C145.329 27.3287 145.737 27.0625 146.067 27.2577Z" fill="#001772"/>
<path d="M187.915 27.071C189.651 27.8432 191.023 28.9881 191.318 31.0917C191.409 31.6908 191.384 32.3025 191.244 32.8918C191.104 33.481 190.852 34.0363 190.502 34.526C190.153 35.0156 189.712 35.4299 189.205 35.7453C188.699 36.0606 188.136 36.2708 187.55 36.3639C187.329 36.3996 187.106 36.4174 186.882 36.4171H176.162C175.389 36.4171 175.068 36.5502 175.103 37.4379C175.181 39.3461 175.164 41.2721 175.103 43.1804C175.103 43.9615 175.337 44.1124 176.04 44.068H186.561C187.778 44.0139 188.965 44.4562 189.863 45.2976C190.761 46.139 191.295 47.3106 191.348 48.5547C191.401 49.7988 190.968 51.0134 190.146 51.9314C189.323 52.8494 188.177 53.3955 186.96 53.4496H175.945C175.276 53.4496 175.077 53.6094 175.077 54.3373C175.129 56.2189 175.077 58.1006 175.077 59.9822C175.059 60.7635 175.189 61.5409 175.459 62.2722C175.601 62.809 175.93 63.2744 176.384 63.5815C176.837 63.8885 177.385 64.0163 177.924 63.9407H186.778C187.902 63.9314 188.989 64.3539 189.823 65.1248C190.658 65.8956 191.179 66.9587 191.283 68.1034C191.422 69.1861 191.185 70.2842 190.614 71.2069C190.043 72.1296 189.174 72.8185 188.158 73.1538C187.593 73.3115 187.007 73.3774 186.422 73.349C183.714 73.349 181.005 73.2426 178.297 73.349C171.353 73.6774 167.377 68.2987 166.422 63.213C166.2 61.921 166.098 60.6104 166.119 59.2988C166.119 50.5651 166.171 41.8314 166.119 33.1065C166.119 30.2485 166.874 28.1361 169.591 27.0443L187.915 27.071Z" fill="#001772"/>
<path d="M256.871 75C256.914 74.6538 256.654 74.6449 256.428 74.5473C255.47 74.2057 254.648 73.5495 254.093 72.681C253.537 71.8124 253.278 70.7804 253.355 69.7455V37.6508C253.355 36.6923 253.139 36.4083 252.184 36.4438C249.832 36.5237 247.47 36.4438 245.109 36.4438C243.975 36.5326 242.849 36.1781 241.96 35.4516C241.07 34.7252 240.484 33.681 240.318 32.5296C240.108 31.3972 240.317 30.2254 240.904 29.2415C241.491 28.2575 242.414 27.5315 243.495 27.2041C243.575 27.1454 243.648 27.0769 243.712 27H271.003C272.739 27.7189 274.023 28.7751 274.397 30.7899C274.647 31.988 274.421 33.2385 273.77 34.2669C273.12 35.2953 272.096 36.0176 270.925 36.2751C270.639 36.3355 270.348 36.3682 270.056 36.3728C267.904 36.3728 265.716 36.4526 263.607 36.3728C262.462 36.3195 262.288 36.7278 262.288 37.784V69.3994C262.288 71.9112 261.42 73.7307 258.998 74.5651C258.798 74.636 258.772 74.7959 258.703 74.9556L256.871 75Z" fill="#001772"/>
<path d="M146.067 27.2577C145.887 27.3146 145.697 27.327 145.512 27.2946C145.326 27.2622 145.151 27.186 145 27.0713L146.041 27.0709C146.041 27.134 146.05 27.1971 146.067 27.2577Z" fill="#001772"/>
<path d="M296.792 61.4201C298.05 57.7545 299.066 54.2396 300.456 50.9023C301.098 49.4875 301.452 47.9542 301.499 46.395C301.545 44.836 301.281 43.2834 300.724 41.8314C299.74 38.8437 298.902 35.8074 298.215 32.7337C297.642 30.5592 299.084 28.6953 301.141 28.9971C302.538 29.2012 303.155 30.213 303.502 31.5C304.966 36.9674 306.439 42.429 307.92 47.8846C308.944 51.6656 309.986 55.4556 311.011 59.2366C311.045 59.5456 311.177 59.8348 311.384 60.0621L315.194 47.6361L320.212 31.216C320.329 30.5705 320.668 29.9892 321.168 29.5762C321.667 29.1633 322.293 28.9459 322.935 28.963C323.578 28.9801 324.192 29.2306 324.67 29.6696C325.148 30.1085 325.456 30.7071 325.542 31.358C325.599 31.9255 325.519 32.4988 325.306 33.0266C321.499 45.5177 317.68 58.006 313.849 70.4911C313.345 72.1242 312.495 72.8609 311.176 72.8787C310.543 72.9002 309.926 72.686 309.437 72.2761C308.949 71.8662 308.622 71.2886 308.519 70.6509C307.27 66.1184 306.031 61.5829 304.804 57.0443C304.708 56.6982 304.621 56.361 304.509 55.9349C304.17 56.5142 303.918 57.1426 303.763 57.7989C302.295 62.0325 300.855 66.284 299.422 70.5178C298.858 72.1597 298.025 72.8698 296.706 72.8609C295.386 72.8521 294.527 72.0799 294.014 70.4911L282.113 33.213C281.358 30.8255 282.634 28.8373 284.805 29.0592C286.211 29.2012 286.862 30.1864 287.261 31.4556C288.997 36.9882 290.734 42.5088 292.47 48.0178C293.884 52.358 295.316 56.7693 296.792 61.4201Z" fill="#001772"/>
<path d="M370.835 50.1302V32.3787C370.835 30.0088 371.816 28.997 374.107 28.9881C376.921 28.9881 379.733 29.0769 382.536 28.9881C392.136 28.6509 397.588 38.5828 394.159 46.8639C393.613 48.3447 392.778 49.6966 391.705 50.8378C390.632 51.9789 389.343 52.8856 387.918 53.5029C387.241 53.7869 387.232 54.0443 387.519 54.6479C389.515 58.8106 391.468 63 393.439 67.1716C393.654 67.5596 393.784 67.9907 393.82 68.4351C393.856 68.8795 393.797 69.3266 393.647 69.7455C393.481 70.2564 393.164 70.7018 392.739 71.0199C392.315 71.338 391.804 71.513 391.278 71.5206C390.714 71.5533 390.155 71.3979 389.686 71.0777C389.215 70.7575 388.861 70.29 388.673 69.7455C386.614 65.3727 384.553 61.0029 382.493 56.6361C381.937 55.4556 381.313 54.3106 380.757 53.1302C380.494 52.6867 380.354 52.1783 380.353 51.6598C380.351 51.1412 380.489 50.6321 380.75 50.1874C381.01 49.7426 381.385 49.3791 381.833 49.136C382.281 48.8928 382.786 48.7793 383.292 48.8076C384.167 48.7915 385.031 48.5991 385.834 48.2415C386.636 47.884 387.363 47.3681 387.97 46.7236C388.578 46.079 389.056 45.3183 389.376 44.4851C389.696 43.6517 389.852 42.762 389.836 41.8668C389.95 40.0747 389.365 38.3094 388.208 36.9583C387.051 35.6072 385.417 34.7805 383.664 34.6597H383.465C381.286 34.5177 379.125 34.6597 376.912 34.6065C376.469 34.6065 376.26 34.7307 376.304 35.2011C376.321 35.4493 376.321 35.6985 376.304 35.9467V68.8579C376.271 69.573 375.971 70.2479 375.464 70.7433C374.959 71.2386 374.287 71.5169 373.587 71.5206C372.883 71.5136 372.21 71.2241 371.714 70.7143C371.216 70.2046 370.936 69.5155 370.931 68.7958C370.878 66.6302 370.931 64.4645 370.931 62.2987L370.835 50.1302Z" fill="#001772"/>
<path d="M408.343 46.3312V32.3254C408.343 30.0354 409.341 29.0058 411.563 28.997H427.187C427.782 28.9578 428.372 29.1286 428.859 29.4808C429.346 29.833 429.7 30.3452 429.861 30.9319C430.035 31.4737 430.044 32.0564 429.89 32.6041C429.735 33.1518 429.422 33.6392 428.993 34.0029C428.437 34.4366 427.747 34.6509 427.049 34.6064H414.757C413.958 34.6064 413.707 34.7928 413.724 35.6449C413.777 38.7691 413.768 41.8579 413.724 45.0177C413.724 45.8254 413.889 46.0917 414.74 46.0828C418.898 46.0295 423.064 46.0828 427.231 46.0828C427.953 46.0756 428.649 46.361 429.166 46.8765C429.683 47.392 429.98 48.0958 429.992 48.8342C429.997 49.2159 429.925 49.5946 429.781 49.9466C429.637 50.2988 429.423 50.6167 429.154 50.8807C428.885 51.1448 428.565 51.3491 428.215 51.481C427.864 51.6131 427.491 51.6698 427.118 51.6479H414.714C413.967 51.6479 413.699 51.781 413.715 52.6153C413.777 55.207 413.715 57.7987 413.715 60.3905C413.709 61.5677 414.008 62.7256 414.584 63.7455C414.921 64.4292 415.445 64.9989 416.093 65.3862C416.739 65.7734 417.481 65.9618 418.229 65.9289C421.111 65.8667 423.993 65.9289 426.91 65.9289C428.793 65.9289 430 67.0383 430 68.7514C430.006 69.1185 429.941 69.4833 429.808 69.8247C429.677 70.1661 429.479 70.4777 429.23 70.7415C428.98 71.0052 428.682 71.216 428.352 71.3619C428.022 71.5078 427.668 71.5858 427.309 71.5916H427.022C423.967 71.5916 420.946 71.6537 417.857 71.5916C413.464 71.494 409.922 68.3609 408.768 63.6035C408.484 62.4425 408.341 61.25 408.343 60.0531C408.349 55.4555 408.349 50.8816 408.343 46.3312Z" fill="#001772"/>
<path d="M345.098 40.1715C344.23 42.9142 343.362 45.4526 342.494 47.9911L335.489 69.4259C335.344 70.0133 335.015 70.536 334.552 70.9132C334.089 71.2904 333.517 71.5014 332.925 71.5135C332.332 71.5256 331.753 71.3382 331.275 70.9802C330.797 70.6222 330.448 70.1135 330.281 69.5325C330.099 68.7697 330.159 67.9674 330.454 67.2425C334.221 55.7751 337.983 44.3047 341.739 32.8313C341.973 32.1301 342.19 31.4201 342.45 30.7278C342.608 30.1425 342.956 29.6297 343.438 29.2746C343.92 28.9195 344.505 28.7432 345.098 28.7751C345.673 28.8044 346.225 29.0157 346.678 29.3798C347.13 29.744 347.461 30.2429 347.624 30.8076C350.396 38.9201 353.162 47.0355 355.922 55.1538C357.328 59.2987 358.761 63.4348 360.176 67.5798C360.387 68.0894 360.446 68.6519 360.344 69.1957C360.243 69.7395 359.984 70.2399 359.603 70.633C359.278 71.0104 358.853 71.2822 358.379 71.4147C357.906 71.5473 357.405 71.5347 356.938 71.3786C356.459 71.2163 356.029 70.9312 355.688 70.5505C355.348 70.1698 355.109 69.7062 354.993 69.204C352.921 63.0857 350.838 56.9733 348.743 50.8668C347.537 47.4141 346.33 43.8639 345.098 40.1715Z" fill="#001772"/>
<path d="M8.70523 95.4664C-8.33691 83.8225 1.70161 33.4216 21.0783 37.4798C32.9845 39.9733 33.6848 62.0416 40.6884 62.8635C49.0928 63.8498 50.9604 44.9319 59.5982 44.9319C70.8039 44.9319 77.8137 60.5586 83.0563 61.0891C88.2988 61.6195 87.9814 57.2655 91.5634 56.5907C95.1453 55.916 98.491 58.1651 99.6227 64.9126C101.349 75.2056 96.9668 80.9258 90.2202 83.8984C81.0937 87.9197 71.415 86.2408 59.1313 89.6445C46.8476 93.0482 25.7474 107.11 8.70523 95.4664Z" fill="url(#paint0_linear_2238_170)"/>
<path opacity="0.4" fill-rule="evenodd" clip-rule="evenodd" d="M0.0697267 69.7006C-0.466667 80.4975 2.06143 90.9271 8.70523 95.4664C21.8783 104.467 37.476 98.1083 49.5524 93.1853C53.0993 91.7393 56.3425 90.4172 59.1313 89.6445C64.7355 88.0916 69.7976 87.5966 74.5123 87.1357C80.1316 86.5862 85.2575 86.085 90.2202 83.8984C94.3209 82.0915 97.5483 79.2696 99.0612 75.0227C97.75 76.75 95.4702 79.75 88.25 79.75C81.0298 79.75 70.5 70.5 61 71.5C51.5 72.5 29.75 97.5 15.75 94.4019C1.74997 91.3038 0.532099 78.2061 0.0697267 69.7006Z" fill="#001772"/>
<g style="mix-blend-mode:multiply">
<path d="M46.1356 62.8451C36.6435 77.4197 31.3601 79.202 24.1962 77.4647C11.2117 74.3159 19.6292 40.9382 28.2259 25.284C38.9717 5.71627 55.5382 -3.50531 72.7763 1.21794C90.0144 5.94119 89.3428 19.6611 85.537 30.4571C81.7311 41.2531 86.3707 45.9764 88.2234 54.973C90.2614 64.8694 80.1641 68.9179 72.7763 60.596C61.1782 47.5313 58.0008 44.6269 46.1356 62.8451Z" fill="url(#paint1_linear_2238_170)"/>
<path d="M46.1356 62.8451C36.6435 77.4197 31.3601 79.202 24.1962 77.4647C11.2117 74.3159 19.6292 40.9382 28.2259 25.284C38.9717 5.71627 55.5382 -3.50531 72.7763 1.21794C90.0144 5.94119 89.3428 19.6611 85.537 30.4571C81.7311 41.2531 86.3707 45.9764 88.2234 54.973C90.2614 64.8694 80.1641 68.9179 72.7763 60.596C61.1782 47.5313 58.0008 44.6269 46.1356 62.8451Z" fill="url(#paint2_linear_2238_170)"/>
</g>
<g style="mix-blend-mode:multiply" opacity="0.6">
<path fill-rule="evenodd" clip-rule="evenodd" d="M28.2259 25.284C33.6446 15.4168 40.5434 8.18033 48.262 4.03613C42.2636 9.02905 37.0142 15.9795 32.8452 24.6285C25.7714 39.3038 19.5561 67.4716 26.1052 77.8439C25.4813 77.7511 24.8465 77.6224 24.1962 77.4647C11.2117 74.3159 19.6292 40.9382 28.2259 25.284Z" fill="url(#paint3_linear_2238_170)"/>
<path fill-rule="evenodd" clip-rule="evenodd" d="M28.2259 25.284C33.6446 15.4168 40.5434 8.18033 48.262 4.03613C42.2636 9.02905 37.0142 15.9795 32.8452 24.6285C25.7714 39.3038 19.5561 67.4716 26.1052 77.8439C25.4813 77.7511 24.8465 77.6224 24.1962 77.4647C11.2117 74.3159 19.6292 40.9382 28.2259 25.284Z" fill="url(#paint4_linear_2238_170)"/>
</g>
<g style="mix-blend-mode:overlay" opacity="0.4">
<path fill-rule="evenodd" clip-rule="evenodd" d="M87.3485 61.8649C87.8724 61.0066 88.2361 59.992 88.3968 58.8399C84.1526 50.4142 72.7915 35.1007 61.301 41.2531C54.5039 44.5842 51.0291 52.4164 47.8793 59.5159C47.5632 60.2284 47.2504 60.9334 46.9378 61.6258C58.1508 44.7653 61.444 47.8307 72.7763 60.596C78.0559 66.5431 84.7193 66.1726 87.3485 61.8649Z" fill="#FF81AE"/>
</g>
<defs>
<linearGradient id="paint0_linear_2238_170" x1="49.1247" y1="31.1934" x2="74.6453" y2="101.62" gradientUnits="userSpaceOnUse">
<stop stop-color="#00DEBC"/>
<stop offset="0.630208" stop-color="#006DD6"/>
<stop offset="1" stop-color="#4743FF"/>
</linearGradient>
<linearGradient id="paint1_linear_2238_170" x1="34.8842" y1="50.4747" x2="74.2503" y2="9.94806" gradientUnits="userSpaceOnUse">
<stop stop-color="#740091"/>
<stop offset="1" stop-color="#FF0066"/>
</linearGradient>
<linearGradient id="paint2_linear_2238_170" x1="47.1971" y1="31.5817" x2="85.8705" y2="-4.45012" gradientUnits="userSpaceOnUse">
<stop stop-color="#FF0066" stop-opacity="0"/>
<stop offset="1" stop-color="#FFC01E" stop-opacity="0.63"/>
</linearGradient>
<linearGradient id="paint3_linear_2238_170" x1="41.5657" y1="51.6509" x2="82.0416" y2="5.18311" gradientUnits="userSpaceOnUse">
<stop stop-color="#740091"/>
<stop offset="1" stop-color="#FF0066"/>
</linearGradient>
<linearGradient id="paint4_linear_2238_170" x1="53.8815" y1="30.3663" x2="93.8724" y2="-11.1666" gradientUnits="userSpaceOnUse">
<stop stop-color="#FFC700" stop-opacity="0"/>
<stop offset="1" stop-color="#FFC01E" stop-opacity="0.63"/>
</linearGradient>
</defs>
</svg>
