<svg width="300" height="300" viewBox="0 0 300 300" fill="none" xmlns="http://www.w3.org/2000/svg">
<rect width="300" height="300" fill="white"/>
<path d="M79.4146 271.989C79.5199 271.73 79.366 271.664 79.1554 271.589C78.2399 271.281 77.4523 270.664 76.92 269.838C76.3877 269.013 76.142 268.027 76.2226 267.04V244.869C76.2226 240.77 76.3117 236.671 76.2226 232.588C76.1415 229.922 76.976 228.014 79.4632 226.998H81.4076C82.0312 227.098 82.6233 227.347 83.1367 227.725C83.6501 228.102 84.0706 228.598 84.3647 229.172C88.6855 235.938 92.9768 242.72 97.2382 249.518C97.7327 250.293 98.2345 251.059 98.8584 252.018V231.455C98.8445 230.787 98.9681 230.124 99.2227 229.509C99.4765 228.894 99.8556 228.342 100.333 227.889C100.884 227.441 101.541 227.153 102.237 227.056H104.181C105.163 227.23 106.054 227.748 106.704 228.523C107.355 229.298 107.723 230.282 107.746 231.305C107.766 231.583 107.766 231.861 107.746 232.138V266.715C107.796 267.541 107.655 268.368 107.336 269.128C107.016 269.888 106.526 270.56 105.907 271.089C105.36 271.425 104.782 271.704 104.181 271.922H102.196C100.576 271.43 99.6689 270.256 98.8101 268.839C95.9823 264.298 93.0906 259.799 90.2384 255.267C88.4965 252.509 86.7385 249.751 84.9561 246.935V266.456C85.0135 267.29 84.8899 268.126 84.5942 268.904C84.2985 269.682 83.8383 270.383 83.2467 270.955C82.6848 271.398 82.0587 271.746 81.3914 271.989H79.4146Z" fill="#001772"/>
<path d="M24.9961 227.173C27.7112 227.562 30.2318 228.842 32.1833 230.821C34.1348 232.801 35.413 235.376 35.828 238.162C36.6949 244.236 34.7667 249.169 29.7112 252.635C29.2008 252.984 29.2981 253.234 29.5006 253.659C31.121 257.1 32.7413 260.533 34.313 263.991C34.7505 264.854 34.9026 265.841 34.7462 266.802C34.5898 267.762 34.1334 268.644 33.4461 269.314C33.0455 269.696 32.5759 269.992 32.0639 270.187C31.5519 270.382 31.0077 270.471 30.4623 270.449C29.9169 270.427 29.3809 270.295 28.8851 270.061C28.3892 269.826 27.9432 269.493 27.5724 269.081C27.2326 268.723 26.9581 268.306 26.7623 267.848C24.7126 263.516 22.7114 259.167 20.6455 254.834C20.2405 254.001 19.7787 253.126 19.3654 252.26C17.8505 249.135 19.6815 245.678 23.0598 245.694C26.7704 245.694 28.4555 241.462 27.2889 238.729C26.9725 237.867 26.4052 237.126 25.6643 236.607C24.9235 236.088 24.0451 235.817 23.149 235.83C21.7554 235.78 20.362 235.83 18.9685 235.83C18.4419 235.83 18.2636 235.996 18.3285 236.513C18.3285 236.713 18.3285 236.913 18.3285 237.113V265.998C18.3624 267.035 18.036 268.049 17.4078 268.86C16.7797 269.671 15.8911 270.225 14.9015 270.423C13.8843 270.608 12.8364 270.397 11.9629 269.83C11.0893 269.263 10.4529 268.381 10.1782 267.357C10.1268 267.241 10.0673 267.13 10 267.023V230.364C10.1023 229.502 10.4843 228.701 11.0841 228.091C11.6839 227.48 12.4666 227.095 13.3055 226.998H23.9996C24.3075 227.24 24.6882 226.99 24.9961 227.173Z" fill="#001772"/>
<path d="M64.054 226.998C65.6743 227.723 66.9544 228.797 67.2298 230.772C67.3151 231.334 67.2919 231.909 67.1613 232.462C67.0308 233.015 66.7955 233.536 66.469 233.996C66.1424 234.455 65.731 234.844 65.2582 235.14C64.7855 235.436 64.2606 235.634 63.7137 235.721C63.5073 235.754 63.2988 235.771 63.0899 235.771H53.0844C52.3633 235.771 52.0636 235.896 52.096 236.729C52.1689 238.52 52.1527 240.328 52.096 242.12C52.096 242.853 52.3147 242.994 52.971 242.953H62.7901C63.9257 242.902 65.0344 243.317 65.8723 244.107C66.7102 244.897 67.2088 245.997 67.2582 247.164C67.3076 248.332 66.9039 249.473 66.1358 250.334C65.3678 251.196 64.2984 251.709 63.1628 251.759H52.8818C52.258 251.759 52.0717 251.909 52.0717 252.593C52.1202 254.359 52.0717 256.125 52.0717 257.891C52.0555 258.625 52.1765 259.355 52.4282 260.041C52.5612 260.545 52.8681 260.982 53.2915 261.27C53.7149 261.558 54.2259 261.678 54.729 261.607H62.9927C64.0421 261.599 65.0565 261.995 65.8352 262.719C66.6139 263.442 67.1 264.44 67.1974 265.515C67.3271 266.531 67.1062 267.562 66.5733 268.428C66.0405 269.294 65.2293 269.941 64.2808 270.256C63.7534 270.404 63.2066 270.465 62.6605 270.439C60.1328 270.439 57.6051 270.339 55.0774 270.439C48.5961 270.747 44.8855 265.698 43.9943 260.924C43.7867 259.711 43.6917 258.481 43.7108 257.25C43.7108 249.052 43.7594 240.853 43.7108 232.663C43.7108 229.98 44.4156 227.998 46.9515 226.973L64.054 226.998Z" fill="#001772"/>
<path d="M128.413 271.989C128.453 271.664 128.21 271.655 128 271.564C127.106 271.243 126.339 270.627 125.82 269.812C125.301 268.996 125.06 268.028 125.132 267.056V236.929C125.132 236.029 124.93 235.763 124.038 235.796C121.843 235.871 119.639 235.796 117.435 235.796C116.376 235.879 115.326 235.547 114.496 234.865C113.666 234.183 113.118 233.203 112.963 232.122C112.768 231.059 112.962 229.959 113.51 229.035C114.058 228.112 114.92 227.43 115.929 227.123C116.003 227.068 116.071 227.003 116.131 226.931H141.603C143.223 227.606 144.422 228.597 144.77 230.489C145.004 231.613 144.793 232.787 144.186 233.753C143.578 234.718 142.623 235.396 141.53 235.638C141.263 235.694 140.992 235.725 140.719 235.729C138.71 235.729 136.668 235.804 134.7 235.729C133.631 235.679 133.469 236.063 133.469 237.054V266.731C133.469 269.089 132.658 270.797 130.398 271.58C130.212 271.647 130.187 271.797 130.123 271.947L128.413 271.989Z" fill="#001772"/>
<path d="M24.9961 227.173C24.8282 227.226 24.6507 227.238 24.4777 227.208C24.3045 227.177 24.1407 227.106 23.9996 226.998L24.9719 226.998C24.972 227.057 24.98 227.116 24.9961 227.173Z" fill="#001772"/>
<path d="M165.673 259.241C166.847 255.8 167.795 252.501 169.092 249.368C169.691 248.04 170.022 246.601 170.065 245.137C170.109 243.674 169.862 242.216 169.342 240.853C168.424 238.049 167.642 235.199 167.001 232.313C166.466 230.272 167.811 228.523 169.731 228.806C171.035 228.997 171.611 229.947 171.935 231.155C173.302 236.288 174.676 241.414 176.059 246.535C177.015 250.085 177.987 253.642 178.943 257.192C178.975 257.482 179.098 257.753 179.291 257.966L182.848 246.302L187.531 230.889C187.641 230.283 187.957 229.737 188.423 229.349C188.889 228.962 189.474 228.758 190.073 228.774C190.672 228.79 191.246 229.025 191.692 229.437C192.138 229.849 192.426 230.411 192.505 231.022C192.559 231.555 192.484 232.093 192.286 232.588C188.733 244.314 185.168 256.036 181.592 267.756C181.122 269.289 180.329 269.981 179.097 269.997C178.507 270.018 177.931 269.817 177.475 269.432C177.019 269.047 176.714 268.505 176.617 267.906C175.452 263.651 174.296 259.394 173.15 255.134C173.061 254.809 172.98 254.492 172.875 254.092C172.558 254.636 172.323 255.226 172.178 255.842C170.809 259.816 169.464 263.807 168.127 267.781C167.601 269.322 166.823 269.989 165.592 269.981C164.36 269.972 163.558 269.248 163.08 267.756L151.973 232.763C151.268 230.522 152.459 228.656 154.484 228.864C155.797 228.997 156.404 229.922 156.777 231.114C158.397 236.307 160.018 241.489 161.638 246.66C162.959 250.735 164.295 254.875 165.673 259.241Z" fill="#001772"/>
<path d="M234.78 248.643V231.98C234.78 229.756 235.695 228.806 237.834 228.797C240.459 228.797 243.084 228.881 245.701 228.797C254.661 228.481 259.749 237.804 256.549 245.577C256.039 246.967 255.259 248.236 254.258 249.308C253.257 250.379 252.054 251.23 250.723 251.809C250.091 252.076 250.083 252.318 250.351 252.884C252.214 256.792 254.037 260.724 255.876 264.64C256.077 265.004 256.198 265.409 256.232 265.826C256.265 266.243 256.211 266.663 256.071 267.056C255.916 267.536 255.62 267.954 255.223 268.253C254.827 268.551 254.35 268.715 253.859 268.723C253.333 268.753 252.811 268.607 252.373 268.307C251.934 268.006 251.604 267.567 251.428 267.056C249.506 262.952 247.583 258.85 245.66 254.75C245.141 253.642 244.559 252.568 244.039 251.459C243.795 251.043 243.664 250.566 243.663 250.079C243.661 249.592 243.79 249.115 244.033 248.697C244.276 248.28 244.626 247.938 245.044 247.71C245.462 247.482 245.933 247.375 246.406 247.402C247.223 247.387 248.029 247.206 248.778 246.87C249.527 246.535 250.205 246.051 250.772 245.446C251.339 244.841 251.785 244.127 252.084 243.344C252.383 242.562 252.529 241.727 252.514 240.887C252.62 239.204 252.074 237.547 250.994 236.279C249.915 235.011 248.389 234.235 246.754 234.121H246.568C244.534 233.988 242.517 234.121 240.451 234.071C240.038 234.071 239.843 234.188 239.884 234.63C239.9 234.863 239.9 235.096 239.884 235.329V266.223C239.853 266.894 239.573 267.528 239.1 267.993C238.629 268.458 238.001 268.719 237.348 268.723C236.691 268.716 236.063 268.444 235.599 267.966C235.135 267.487 234.873 266.84 234.869 266.165C234.82 264.132 234.869 262.099 234.869 260.066L234.78 248.643Z" fill="#001772"/>
<path d="M269.786 245.077V231.93C269.786 229.78 270.718 228.814 272.792 228.806H287.375C287.93 228.769 288.481 228.929 288.935 229.26C289.39 229.59 289.72 230.071 289.87 230.622C290.032 231.131 290.041 231.678 289.897 232.192C289.752 232.706 289.461 233.163 289.061 233.505C288.542 233.912 287.897 234.113 287.246 234.071H275.774C275.028 234.071 274.794 234.246 274.809 235.046C274.858 237.979 274.85 240.878 274.809 243.844C274.809 244.602 274.963 244.852 275.757 244.844C279.638 244.794 283.527 244.844 287.416 244.844C288.09 244.837 288.739 245.105 289.222 245.589C289.704 246.073 289.982 246.734 289.992 247.427C289.997 247.785 289.93 248.141 289.796 248.471C289.661 248.802 289.462 249.1 289.21 249.348C288.959 249.596 288.66 249.788 288.334 249.911C288.006 250.035 287.658 250.089 287.31 250.068H275.733C275.036 250.068 274.785 250.193 274.801 250.976C274.858 253.409 274.801 255.842 274.801 258.275C274.795 259.38 275.074 260.467 275.612 261.424C275.927 262.066 276.415 262.601 277.02 262.964C277.623 263.328 278.316 263.505 279.014 263.474C281.704 263.415 284.394 263.474 287.116 263.474C288.874 263.474 290 264.515 290 266.123C290.005 266.468 289.945 266.81 289.821 267.131C289.698 267.451 289.514 267.744 289.282 267.991C289.048 268.239 288.77 268.437 288.462 268.574C288.154 268.711 287.824 268.784 287.489 268.789H287.221C284.369 268.789 281.55 268.847 278.666 268.789C274.566 268.698 271.261 265.756 270.183 261.291C269.918 260.201 269.785 259.082 269.786 257.958C269.792 253.642 269.792 249.349 269.786 245.077Z" fill="#001772"/>
<path d="M210.758 239.295C209.948 241.87 209.138 244.253 208.328 246.635L201.79 266.756C201.655 267.308 201.348 267.798 200.915 268.152C200.483 268.506 199.949 268.704 199.397 268.716C198.843 268.727 198.303 268.551 197.857 268.215C197.41 267.879 197.085 267.402 196.929 266.856C196.759 266.14 196.815 265.387 197.09 264.707C200.607 253.942 204.117 243.175 207.623 232.405C207.842 231.747 208.044 231.08 208.287 230.43C208.434 229.881 208.759 229.4 209.209 229.066C209.658 228.733 210.204 228.568 210.758 228.597C211.295 228.625 211.81 228.823 212.232 229.165C212.655 229.507 212.964 229.975 213.116 230.505C215.703 238.121 218.284 245.738 220.861 253.359C222.173 257.25 223.51 261.132 224.831 265.023C225.028 265.502 225.083 266.03 224.988 266.54C224.893 267.051 224.652 267.52 224.296 267.889C223.993 268.244 223.596 268.499 223.154 268.623C222.712 268.748 222.244 268.736 221.809 268.589C221.362 268.437 220.961 268.169 220.642 267.812C220.325 267.454 220.102 267.019 219.994 266.548C218.06 260.805 216.116 255.067 214.16 249.335C213.035 246.094 211.908 242.761 210.758 239.295Z" fill="#001772"/>
<path d="M83.5487 182.624C56.1246 163.887 72.2785 82.7818 103.459 89.3121C122.619 93.3247 123.746 128.837 135.016 130.159C148.54 131.747 151.545 101.304 165.445 101.304C183.478 101.304 194.758 126.45 203.194 127.304C211.63 128.158 211.12 121.151 216.884 120.065C222.648 118.98 228.032 122.599 229.853 133.457C232.631 150.02 225.579 159.225 214.722 164.009C200.036 170.48 184.461 167.778 164.694 173.255C144.927 178.733 110.973 201.361 83.5487 182.624Z" fill="url(#paint0_linear_523_32)"/>
<path opacity="0.4" fill-rule="evenodd" clip-rule="evenodd" d="M69.6525 141.162C68.7893 158.537 72.8575 175.32 83.5487 182.624C104.747 197.108 129.846 186.876 149.28 178.954C154.988 176.627 160.206 174.499 164.694 173.256C173.712 170.757 181.858 169.96 189.445 169.219C198.488 168.334 206.736 167.528 214.722 164.009C221.321 161.102 226.514 156.561 228.949 149.726C226.839 152.506 223.17 157.334 211.552 157.334C199.933 157.334 182.989 142.449 167.701 144.058C152.414 145.667 117.414 185.897 94.8851 180.911C72.3563 175.926 70.3965 154.849 69.6525 141.162Z" fill="#001772"/>
<g style="mix-blend-mode:multiply">
<path d="M143.781 130.13C128.507 153.583 120.005 156.452 108.477 153.656C87.582 148.589 101.127 94.8776 114.961 69.6869C132.253 38.1986 158.912 23.3593 186.651 30.9599C214.391 38.5605 213.31 60.6386 207.186 78.0114C201.062 95.3843 208.528 102.985 211.509 117.462C214.788 133.388 198.54 139.902 186.651 126.511C167.988 105.487 162.875 100.813 143.781 130.13Z" fill="url(#paint1_linear_523_32)"/>
<path d="M143.781 130.13C128.507 153.583 120.005 156.452 108.477 153.656C87.582 148.589 101.127 94.8776 114.961 69.6869C132.253 38.1986 158.912 23.3593 186.651 30.9599C214.391 38.5605 213.31 60.6386 207.186 78.0114C201.062 95.3843 208.528 102.985 211.509 117.462C214.788 133.388 198.54 139.902 186.651 126.511C167.988 105.487 162.875 100.813 143.781 130.13Z" fill="url(#paint2_linear_523_32)"/>
</g>
<g style="mix-blend-mode:multiply" opacity="0.6">
<path fill-rule="evenodd" clip-rule="evenodd" d="M114.961 69.6869C123.681 53.8085 134.782 42.1637 147.203 35.4949C137.551 43.5294 129.103 54.7141 122.395 68.632C111.011 92.2475 101.01 137.575 111.549 154.266C110.545 154.117 109.523 153.91 108.477 153.656C87.582 148.589 101.127 94.8775 114.961 69.6869Z" fill="url(#paint3_linear_523_32)"/>
<path fill-rule="evenodd" clip-rule="evenodd" d="M114.961 69.6869C123.681 53.8085 134.782 42.1637 147.203 35.4949C137.551 43.5294 129.103 54.7141 122.395 68.632C111.011 92.2475 101.01 137.575 111.549 154.266C110.545 154.117 109.523 153.91 108.477 153.656C87.582 148.589 101.127 94.8775 114.961 69.6869Z" fill="url(#paint4_linear_523_32)"/>
</g>
<g style="mix-blend-mode:overlay" opacity="0.4">
<path fill-rule="evenodd" clip-rule="evenodd" d="M210.101 128.553C210.944 127.172 211.529 125.539 211.788 123.685C204.958 110.126 186.676 85.484 168.185 95.3843C157.248 100.745 151.656 113.348 146.587 124.773C146.079 125.919 145.575 127.054 145.072 128.168C163.116 101.036 168.416 105.969 186.651 126.511C195.147 136.081 205.87 135.485 210.101 128.553Z" fill="#FF81AE"/>
</g>
<defs>
<linearGradient id="paint0_linear_523_32" x1="148.592" y1="79.1961" x2="189.659" y2="192.527" gradientUnits="userSpaceOnUse">
<stop stop-color="#00DEBC"/>
<stop offset="0.630208" stop-color="#006DD6"/>
<stop offset="1" stop-color="#4743FF"/>
</linearGradient>
<linearGradient id="paint1_linear_523_32" x1="125.676" y1="110.224" x2="189.024" y2="45.0084" gradientUnits="userSpaceOnUse">
<stop stop-color="#740091"/>
<stop offset="1" stop-color="#FF0066"/>
</linearGradient>
<linearGradient id="paint2_linear_523_32" x1="145.49" y1="79.8211" x2="207.723" y2="21.8389" gradientUnits="userSpaceOnUse">
<stop stop-color="#FF0066" stop-opacity="0"/>
<stop offset="1" stop-color="#FFC01E" stop-opacity="0.63"/>
</linearGradient>
<linearGradient id="paint3_linear_523_32" x1="136.428" y1="112.116" x2="201.561" y2="37.3406" gradientUnits="userSpaceOnUse">
<stop stop-color="#740091"/>
<stop offset="1" stop-color="#FF0066"/>
</linearGradient>
<linearGradient id="paint4_linear_523_32" x1="156.246" y1="77.8652" x2="220.599" y2="11.0307" gradientUnits="userSpaceOnUse">
<stop stop-color="#FFC700" stop-opacity="0"/>
<stop offset="1" stop-color="#FFC01E" stop-opacity="0.63"/>
</linearGradient>
</defs>
</svg>
